<svg width="177" height="184" viewBox="0 0 177 184" fill="none" xmlns="http://www.w3.org/2000/svg">
<g filter="url(#filter0_dd_63_24278)">
<g clip-path="url(#clip0_63_24278)">
<rect x="6.57568" y="5.66919" width="163.208" height="169.736" rx="4.89623" fill="white"/>
<rect x="6.94336" y="1.03711" width="163.21" height="122.61" fill="url(#paint0_linear_63_24278)"/>
<path d="M21.2546 155.344V152.488C21.8487 152.213 22.298 151.825 22.6027 151.322C22.9074 150.82 23.0597 150.241 23.0597 149.586C23.0597 149.266 23.0292 148.976 22.9683 148.718H20.592V146.318H22.1229C22.001 145.938 21.8868 145.549 21.7801 145.153C21.6735 144.757 21.6202 144.323 21.6202 143.851C21.6202 143.15 21.7497 142.51 22.0086 141.931C22.2676 141.337 22.6332 140.835 23.1054 140.423C23.5928 140.012 24.1793 139.692 24.8648 139.464C25.5655 139.235 26.3423 139.121 27.1954 139.121C28.4292 139.121 29.465 139.357 30.3028 139.829C31.1559 140.286 31.8718 140.956 32.4506 141.84L30.2571 143.394C29.8459 142.815 29.3965 142.396 28.909 142.137C28.4368 141.863 27.8808 141.726 27.2411 141.726C26.4185 141.726 25.7863 141.947 25.3446 142.388C24.9028 142.83 24.682 143.462 24.682 144.285C24.682 144.666 24.72 145.024 24.7962 145.359C24.8724 145.679 24.9714 145.998 25.0932 146.318H29.7088V148.718H25.9615C25.9767 148.839 25.9844 148.961 25.9844 149.083C25.9996 149.205 26.0072 149.327 26.0072 149.449C26.0072 150.256 25.8168 150.926 25.436 151.459C25.0704 151.977 24.682 152.358 24.2707 152.602V152.785H32.0851V155.344H21.2546ZM44.7877 142H37.6131L37.2475 147.347H37.4075C37.575 147.011 37.7578 146.699 37.9558 146.41C38.1539 146.12 38.3824 145.877 38.6413 145.679C38.9003 145.481 39.1973 145.328 39.5324 145.222C39.8828 145.1 40.3017 145.039 40.7891 145.039C41.4746 145.039 42.1144 145.153 42.7084 145.382C43.3025 145.61 43.8128 145.945 44.2393 146.387C44.6811 146.813 45.0238 147.339 45.2675 147.964C45.5265 148.588 45.656 149.296 45.656 150.088C45.656 150.896 45.5265 151.635 45.2675 152.305C45.0086 152.975 44.6278 153.562 44.1251 154.064C43.6224 154.552 43.0055 154.932 42.2743 155.207C41.5431 155.481 40.7053 155.618 39.7609 155.618C39.0297 155.618 38.3747 155.534 37.7959 155.367C37.2171 155.214 36.7068 155.001 36.265 154.727C35.8233 154.453 35.4424 154.14 35.1226 153.79C34.8027 153.424 34.5209 153.044 34.2771 152.648L36.4707 150.957C36.6534 151.261 36.8439 151.551 37.0419 151.825C37.2399 152.084 37.4684 152.312 37.7273 152.51C38.0015 152.708 38.2986 152.868 38.6185 152.99C38.9536 153.097 39.342 153.15 39.7838 153.15C40.6825 153.15 41.3603 152.899 41.8173 152.396C42.2895 151.894 42.5257 151.208 42.5257 150.34V150.157C42.5257 149.334 42.2895 148.687 41.8173 148.215C41.3451 147.743 40.6901 147.507 39.8523 147.507C39.1973 147.507 38.6642 147.636 38.2529 147.895C37.8416 148.139 37.5141 148.405 37.2704 148.695L34.8027 148.352L35.3967 139.395H44.7877V142ZM53.5757 155.618C52.5551 155.618 51.6716 155.435 50.9252 155.07C50.1788 154.689 49.5619 154.148 49.0744 153.447C48.587 152.747 48.2214 151.886 47.9776 150.865C47.7492 149.845 47.6349 148.679 47.6349 147.369C47.6349 146.075 47.7492 144.917 47.9776 143.896C48.2214 142.861 48.587 141.992 49.0744 141.292C49.5619 140.591 50.1788 140.058 50.9252 139.692C51.6716 139.311 52.5551 139.121 53.5757 139.121C55.6016 139.121 57.0944 139.844 58.0541 141.292C59.029 142.739 59.5164 144.765 59.5164 147.369C59.5164 149.974 59.029 152 58.0541 153.447C57.0944 154.894 55.6016 155.618 53.5757 155.618ZM53.5757 153.082C54.5963 153.082 55.3046 152.701 55.7006 151.939C56.1119 151.162 56.3176 150.119 56.3176 148.809V145.93C56.3176 144.62 56.1119 143.584 55.7006 142.822C55.3046 142.046 54.5963 141.657 53.5757 141.657C52.5551 141.657 51.8391 142.046 51.4279 142.822C51.0318 143.584 50.8338 144.62 50.8338 145.93V148.809C50.8338 150.119 51.0318 151.162 51.4279 151.939C51.8391 152.701 52.5551 153.082 53.5757 153.082ZM61.7467 149.837V146.935H68.2815V149.837H61.7467ZM71.6939 155.344V152.899H76.0809V141.566H75.8753L72.4022 145.679L70.5286 144.102L74.4815 139.395H79.0284V152.899H82.6843V155.344H71.6939ZM90.1699 155.618C89.1493 155.618 88.2658 155.435 87.5194 155.07C86.773 154.689 86.156 154.148 85.6686 153.447C85.1811 152.747 84.8156 151.886 84.5718 150.865C84.3434 149.845 84.2291 148.679 84.2291 147.369C84.2291 146.075 84.3434 144.917 84.5718 143.896C84.8156 142.861 85.1811 141.992 85.6686 141.292C86.156 140.591 86.773 140.058 87.5194 139.692C88.2658 139.311 89.1493 139.121 90.1699 139.121C92.1958 139.121 93.6886 139.844 94.6483 141.292C95.6232 142.739 96.1106 144.765 96.1106 147.369C96.1106 149.974 95.6232 152 94.6483 153.447C93.6886 154.894 92.1958 155.618 90.1699 155.618ZM90.1699 153.082C91.1905 153.082 91.8988 152.701 92.2948 151.939C92.7061 151.162 92.9117 150.119 92.9117 148.809V145.93C92.9117 144.62 92.7061 143.584 92.2948 142.822C91.8988 142.046 91.1905 141.657 90.1699 141.657C89.1493 141.657 88.4333 142.046 88.022 142.822C87.626 143.584 87.428 144.62 87.428 145.93V148.809C87.428 150.119 87.626 151.162 88.022 151.939C88.4333 152.701 89.1493 153.082 90.1699 153.082ZM103.87 155.618C102.85 155.618 101.966 155.435 101.22 155.07C100.473 154.689 99.8565 154.148 99.3691 153.447C98.8817 152.747 98.5161 151.886 98.2723 150.865C98.0439 149.845 97.9296 148.679 97.9296 147.369C97.9296 146.075 98.0439 144.917 98.2723 143.896C98.5161 142.861 98.8817 141.992 99.3691 141.292C99.8565 140.591 100.473 140.058 101.22 139.692C101.966 139.311 102.85 139.121 103.87 139.121C105.896 139.121 107.389 139.844 108.349 141.292C109.324 142.739 109.811 144.765 109.811 147.369C109.811 149.974 109.324 152 108.349 153.447C107.389 154.894 105.896 155.618 103.87 155.618ZM103.87 153.082C104.891 153.082 105.599 152.701 105.995 151.939C106.407 151.162 106.612 150.119 106.612 148.809V145.93C106.612 144.62 106.407 143.584 105.995 142.822C105.599 142.046 104.891 141.657 103.87 141.657C102.85 141.657 102.134 142.046 101.723 142.822C101.327 143.584 101.128 144.62 101.128 145.93V148.809C101.128 150.119 101.327 151.162 101.723 151.939C102.134 152.701 102.85 153.082 103.87 153.082Z" fill="#2E3333"/>
</g>
</g>
<defs>
<filter id="filter0_dd_63_24278" x="0.0473819" y="0.772963" width="176.264" height="182.792" filterUnits="userSpaceOnUse" color-interpolation-filters="sRGB">
<feFlood flood-opacity="0" result="BackgroundImageFix"/>
<feColorMatrix in="SourceAlpha" type="matrix" values="0 0 0 0 0 0 0 0 0 0 0 0 0 0 0 0 0 0 127 0" result="hardAlpha"/>
<feMorphology radius="1.63208" operator="dilate" in="SourceAlpha" result="effect1_dropShadow_63_24278"/>
<feOffset/>
<feComposite in2="hardAlpha" operator="out"/>
<feColorMatrix type="matrix" values="0 0 0 0 0 0 0 0 0 0 0 0 0 0 0 0 0 0 0.04 0"/>
<feBlend mode="normal" in2="BackgroundImageFix" result="effect1_dropShadow_63_24278"/>
<feColorMatrix in="SourceAlpha" type="matrix" values="0 0 0 0 0 0 0 0 0 0 0 0 0 0 0 0 0 0 127 0" result="hardAlpha"/>
<feOffset dy="1.63208"/>
<feGaussianBlur stdDeviation="3.26415"/>
<feComposite in2="hardAlpha" operator="out"/>
<feColorMatrix type="matrix" values="0 0 0 0 0 0 0 0 0 0 0 0 0 0 0 0 0 0 0.08 0"/>
<feBlend mode="normal" in2="effect1_dropShadow_63_24278" result="effect2_dropShadow_63_24278"/>
<feBlend mode="normal" in="SourceGraphic" in2="effect2_dropShadow_63_24278" result="shape"/>
</filter>
<linearGradient id="paint0_linear_63_24278" x1="6.94336" y1="1.03711" x2="117.263" y2="160.321" gradientUnits="userSpaceOnUse">
<stop stop-color="#00DDCC"/>
<stop offset="1" stop-color="#009D91"/>
</linearGradient>
<clipPath id="clip0_63_24278">
<rect x="6.57568" y="5.66919" width="163.208" height="169.736" rx="4.89623" fill="white"/>
</clipPath>
</defs>
</svg>
