<svg width="177" height="184" viewBox="0 0 177 184" fill="none" xmlns="http://www.w3.org/2000/svg">
<g filter="url(#filter0_dd_63_24287)">
<g clip-path="url(#clip0_63_24287)">
<rect x="7.04736" y="5.66919" width="163.208" height="169.736" rx="4.89623" fill="white"/>
<rect x="7.41504" y="1.03711" width="163.21" height="122.61" fill="url(#paint0_linear_63_24287)"/>
<path d="M21.7263 155.344V152.488C22.3204 152.213 22.7697 151.825 23.0744 151.322C23.379 150.82 23.5314 150.241 23.5314 149.586C23.5314 149.266 23.5009 148.976 23.44 148.718H21.0637V146.318H22.5946C22.4727 145.938 22.3584 145.549 22.2518 145.153C22.1452 144.757 22.0919 144.323 22.0919 143.851C22.0919 143.15 22.2213 142.51 22.4803 141.931C22.7393 141.337 23.1048 140.835 23.5771 140.423C24.0645 140.012 24.651 139.692 25.3364 139.464C26.0371 139.235 26.814 139.121 27.667 139.121C28.9009 139.121 29.9367 139.357 30.7745 139.829C31.6275 140.286 32.3435 140.956 32.9223 141.84L30.7288 143.394C30.3175 142.815 29.8682 142.396 29.3807 142.137C28.9085 141.863 28.3525 141.726 27.7127 141.726C26.8902 141.726 26.258 141.947 25.8163 142.388C25.3745 142.83 25.1536 143.462 25.1536 144.285C25.1536 144.666 25.1917 145.024 25.2679 145.359C25.3441 145.679 25.4431 145.998 25.5649 146.318H30.1804V148.718H26.4332C26.4484 148.839 26.456 148.961 26.456 149.083C26.4713 149.205 26.4789 149.327 26.4789 149.449C26.4789 150.256 26.2885 150.926 25.9077 151.459C25.5421 151.977 25.1536 152.358 24.7424 152.602V152.785H32.5567V155.344H21.7263ZM35.5714 155.344V152.899H39.9584V141.566H39.7528L36.2797 145.679L34.4061 144.102L38.359 139.395H42.9059V152.899H46.5618V155.344H35.5714ZM54.0473 155.618C53.0268 155.618 52.1433 155.435 51.3969 155.07C50.6505 154.689 50.0335 154.148 49.5461 153.447C49.0586 152.747 48.6931 151.886 48.4493 150.865C48.2208 149.845 48.1066 148.679 48.1066 147.369C48.1066 146.075 48.2208 144.917 48.4493 143.896C48.6931 142.861 49.0586 141.992 49.5461 141.292C50.0335 140.591 50.6505 140.058 51.3969 139.692C52.1433 139.311 53.0268 139.121 54.0473 139.121C56.0733 139.121 57.5661 139.844 58.5258 141.292C59.5007 142.739 59.9881 144.765 59.9881 147.369C59.9881 149.974 59.5007 152 58.5258 153.447C57.5661 154.894 56.0733 155.618 54.0473 155.618ZM54.0473 153.082C55.0679 153.082 55.7763 152.701 56.1723 151.939C56.5836 151.162 56.7892 150.119 56.7892 148.809V145.93C56.7892 144.62 56.5836 143.584 56.1723 142.822C55.7763 142.046 55.0679 141.657 54.0473 141.657C53.0268 141.657 52.3108 142.046 51.8995 142.822C51.5035 143.584 51.3055 144.62 51.3055 145.93V148.809C51.3055 150.119 51.5035 151.162 51.8995 151.939C52.3108 152.701 53.0268 153.082 54.0473 153.082ZM67.7479 155.618C66.7273 155.618 65.8438 155.435 65.0974 155.07C64.351 154.689 63.734 154.148 63.2466 153.447C62.7591 152.747 62.3936 151.886 62.1498 150.865C61.9213 149.845 61.8071 148.679 61.8071 147.369C61.8071 146.075 61.9213 144.917 62.1498 143.896C62.3936 142.861 62.7591 141.992 63.2466 141.292C63.734 140.591 64.351 140.058 65.0974 139.692C65.8438 139.311 66.7273 139.121 67.7479 139.121C69.7738 139.121 71.2666 139.844 72.2263 141.292C73.2012 142.739 73.6886 144.765 73.6886 147.369C73.6886 149.974 73.2012 152 72.2263 153.447C71.2666 154.894 69.7738 155.618 67.7479 155.618ZM67.7479 153.082C68.7684 153.082 69.4768 152.701 69.8728 151.939C70.2841 151.162 70.4897 150.119 70.4897 148.809V145.93C70.4897 144.62 70.2841 143.584 69.8728 142.822C69.4768 142.046 68.7684 141.657 67.7479 141.657C66.7273 141.657 66.0113 142.046 65.6 142.822C65.204 143.584 65.006 144.62 65.006 145.93V148.809C65.006 150.119 65.204 151.162 65.6 151.939C66.0113 152.701 66.7273 153.082 67.7479 153.082ZM75.9189 149.837V146.935H82.4537V149.837H75.9189ZM96.2624 155.344H85.2035V152.556L90.2074 148.169C91.0604 147.423 91.685 146.753 92.081 146.158C92.4771 145.549 92.6751 144.894 92.6751 144.193V143.896C92.6751 143.196 92.4466 142.663 91.9896 142.297C91.5327 141.916 90.9767 141.726 90.3217 141.726C89.4991 141.726 88.8745 141.962 88.448 142.434C88.0215 142.891 87.7169 143.447 87.5341 144.102L84.9293 143.097C85.0968 142.564 85.3329 142.061 85.6376 141.589C85.9423 141.101 86.3231 140.675 86.78 140.309C87.2523 139.943 87.8006 139.654 88.4252 139.441C89.0497 139.228 89.7657 139.121 90.573 139.121C91.4108 139.121 92.1572 139.243 92.8122 139.487C93.4672 139.715 94.0156 140.042 94.4573 140.469C94.9143 140.896 95.257 141.398 95.4855 141.977C95.7293 142.556 95.8511 143.188 95.8511 143.874C95.8511 144.544 95.7445 145.153 95.5312 145.701C95.318 146.25 95.0286 146.775 94.663 147.278C94.2974 147.765 93.8709 148.238 93.3834 148.695C92.896 149.136 92.3781 149.586 91.8297 150.043L88.4709 152.808H96.2624V155.344ZM104.342 155.618C103.321 155.618 102.438 155.435 101.692 155.07C100.945 154.689 100.328 154.148 99.8408 153.447C99.3533 152.747 98.9877 151.886 98.744 150.865C98.5155 149.845 98.4013 148.679 98.4013 147.369C98.4013 146.075 98.5155 144.917 98.744 143.896C98.9877 142.861 99.3533 141.992 99.8408 141.292C100.328 140.591 100.945 140.058 101.692 139.692C102.438 139.311 103.321 139.121 104.342 139.121C106.368 139.121 107.861 139.844 108.82 141.292C109.795 142.739 110.283 144.765 110.283 147.369C110.283 149.974 109.795 152 108.82 153.447C107.861 154.894 106.368 155.618 104.342 155.618ZM104.342 153.082C105.363 153.082 106.071 152.701 106.467 151.939C106.878 151.162 107.084 150.119 107.084 148.809V145.93C107.084 144.62 106.878 143.584 106.467 142.822C106.071 142.046 105.363 141.657 104.342 141.657C103.321 141.657 102.606 142.046 102.194 142.822C101.798 143.584 101.6 144.62 101.6 145.93V148.809C101.6 150.119 101.798 151.162 102.194 151.939C102.606 152.701 103.321 153.082 104.342 153.082ZM118.043 155.618C117.022 155.618 116.138 155.435 115.392 155.07C114.646 154.689 114.029 154.148 113.541 153.447C113.054 152.747 112.688 151.886 112.445 150.865C112.216 149.845 112.102 148.679 112.102 147.369C112.102 146.075 112.216 144.917 112.445 143.896C112.688 142.861 113.054 141.992 113.541 141.292C114.029 140.591 114.646 140.058 115.392 139.692C116.138 139.311 117.022 139.121 118.043 139.121C120.069 139.121 121.561 139.844 122.521 141.292C123.496 142.739 123.983 144.765 123.983 147.369C123.983 149.974 123.496 152 122.521 153.447C121.561 154.894 120.069 155.618 118.043 155.618ZM118.043 153.082C119.063 153.082 119.771 152.701 120.168 151.939C120.579 151.162 120.784 150.119 120.784 148.809V145.93C120.784 144.62 120.579 143.584 120.168 142.822C119.771 142.046 119.063 141.657 118.043 141.657C117.022 141.657 116.306 142.046 115.895 142.822C115.499 143.584 115.301 144.62 115.301 145.93V148.809C115.301 150.119 115.499 151.162 115.895 151.939C116.306 152.701 117.022 153.082 118.043 153.082Z" fill="#2E3333"/>
</g>
</g>
<defs>
<filter id="filter0_dd_63_24287" x="0.519062" y="0.772963" width="176.264" height="182.792" filterUnits="userSpaceOnUse" color-interpolation-filters="sRGB">
<feFlood flood-opacity="0" result="BackgroundImageFix"/>
<feColorMatrix in="SourceAlpha" type="matrix" values="0 0 0 0 0 0 0 0 0 0 0 0 0 0 0 0 0 0 127 0" result="hardAlpha"/>
<feMorphology radius="1.63208" operator="dilate" in="SourceAlpha" result="effect1_dropShadow_63_24287"/>
<feOffset/>
<feComposite in2="hardAlpha" operator="out"/>
<feColorMatrix type="matrix" values="0 0 0 0 0 0 0 0 0 0 0 0 0 0 0 0 0 0 0.04 0"/>
<feBlend mode="normal" in2="BackgroundImageFix" result="effect1_dropShadow_63_24287"/>
<feColorMatrix in="SourceAlpha" type="matrix" values="0 0 0 0 0 0 0 0 0 0 0 0 0 0 0 0 0 0 127 0" result="hardAlpha"/>
<feOffset dy="1.63208"/>
<feGaussianBlur stdDeviation="3.26415"/>
<feComposite in2="hardAlpha" operator="out"/>
<feColorMatrix type="matrix" values="0 0 0 0 0 0 0 0 0 0 0 0 0 0 0 0 0 0 0.08 0"/>
<feBlend mode="normal" in2="effect1_dropShadow_63_24287" result="effect2_dropShadow_63_24287"/>
<feBlend mode="normal" in="SourceGraphic" in2="effect2_dropShadow_63_24287" result="shape"/>
</filter>
<linearGradient id="paint0_linear_63_24287" x1="7.41504" y1="1.03711" x2="117.735" y2="160.321" gradientUnits="userSpaceOnUse">
<stop stop-color="#00DDCC"/>
<stop offset="1" stop-color="#009D91"/>
</linearGradient>
<clipPath id="clip0_63_24287">
<rect x="7.04736" y="5.66919" width="163.208" height="169.736" rx="4.89623" fill="white"/>
</clipPath>
</defs>
</svg>
