<svg width="177" height="184" viewBox="0 0 177 184" fill="none" xmlns="http://www.w3.org/2000/svg">
<g filter="url(#filter0_dd_63_24296)">
<g clip-path="url(#clip0_63_24296)">
<rect x="6.51904" y="5.66919" width="163.208" height="169.736" rx="4.89623" fill="white"/>
<rect x="6.88672" y="1.03711" width="163.21" height="122.61" fill="url(#paint0_linear_63_24296)"/>
<path d="M27.7099 155.618C26.6589 155.618 25.7068 155.443 24.8538 155.092C24.0008 154.742 23.2696 154.217 22.6603 153.516C22.0662 152.815 21.6016 151.954 21.2665 150.934C20.9314 149.913 20.7638 148.725 20.7638 147.369C20.7638 146.029 20.9314 144.848 21.2665 143.828C21.6016 142.792 22.0662 141.924 22.6603 141.223C23.2696 140.522 24.0008 139.997 24.8538 139.646C25.7068 139.296 26.6589 139.121 27.7099 139.121C28.761 139.121 29.713 139.296 30.5661 139.646C31.4191 139.997 32.1503 140.522 32.7596 141.223C33.3689 141.924 33.8335 142.792 34.1534 143.828C34.4885 144.848 34.6561 146.029 34.6561 147.369C34.6561 148.725 34.4885 149.913 34.1534 150.934C33.8335 151.954 33.3689 152.815 32.7596 153.516C32.1503 154.217 31.4191 154.742 30.5661 155.092C29.713 155.443 28.761 155.618 27.7099 155.618ZM27.7099 152.945C28.8524 152.945 29.7587 152.564 30.429 151.802C31.1145 151.041 31.4572 149.974 31.4572 148.603V146.136C31.4572 144.765 31.1145 143.698 30.429 142.937C29.7587 142.175 28.8524 141.794 27.7099 141.794C26.5675 141.794 25.6535 142.175 24.9681 142.937C24.2978 143.698 23.9627 144.765 23.9627 146.136V148.603C23.9627 149.974 24.2978 151.041 24.9681 151.802C25.6535 152.564 26.5675 152.945 27.7099 152.945ZM40.0922 155.344L36.1164 143.417H38.9954L40.6634 148.558L41.8287 152.808H41.9886L43.1539 148.558L44.7762 143.417H47.5638L43.5652 155.344H40.0922ZM54.1581 155.618C53.2746 155.618 52.4825 155.473 51.7818 155.184C51.0963 154.879 50.5099 154.46 50.0224 153.927C49.5502 153.379 49.1846 152.724 48.9257 151.962C48.6667 151.185 48.5372 150.317 48.5372 149.357C48.5372 148.413 48.6591 147.56 48.9028 146.798C49.1618 146.037 49.5273 145.389 49.9996 144.856C50.4718 144.308 51.0506 143.889 51.7361 143.599C52.4216 143.295 53.1984 143.142 54.0667 143.142C54.9959 143.142 55.8032 143.302 56.4887 143.622C57.1742 143.942 57.7378 144.376 58.1795 144.925C58.6213 145.473 58.9488 146.113 59.162 146.844C59.3905 147.56 59.5048 148.329 59.5048 149.152V150.111H51.5761V150.408C51.5761 151.277 51.8199 151.977 52.3073 152.51C52.7948 153.028 53.5183 153.287 54.478 153.287C55.2091 153.287 55.8032 153.135 56.2602 152.83C56.7324 152.526 57.1513 152.137 57.5169 151.665L59.0935 153.424C58.606 154.11 57.9358 154.651 57.0828 155.047C56.245 155.428 55.2701 155.618 54.1581 155.618ZM54.1124 145.336C53.3355 145.336 52.7186 145.595 52.2616 146.113C51.8046 146.631 51.5761 147.301 51.5761 148.123V148.306H56.4658V148.101C56.4658 147.278 56.2602 146.615 55.8489 146.113C55.4529 145.595 54.874 145.336 54.1124 145.336ZM62.078 155.344V143.417H65.0026V145.884H65.1169C65.1931 145.564 65.3073 145.26 65.4596 144.97C65.6272 144.666 65.8404 144.399 66.0994 144.171C66.3584 143.942 66.663 143.759 67.0134 143.622C67.3789 143.485 67.7978 143.417 68.2701 143.417H68.9098V146.181H67.9959C67.0057 146.181 66.2593 146.326 65.7567 146.615C65.254 146.905 65.0026 147.377 65.0026 148.032V155.344H62.078ZM76.3793 155.344V152.488C76.9734 152.213 77.4228 151.825 77.7274 151.322C78.0321 150.82 78.1844 150.241 78.1844 149.586C78.1844 149.266 78.1539 148.976 78.093 148.718H75.7167V146.318H77.2476C77.1257 145.938 77.0115 145.549 76.9049 145.153C76.7982 144.757 76.7449 144.323 76.7449 143.851C76.7449 143.15 76.8744 142.51 77.1334 141.931C77.3923 141.337 77.7579 140.835 78.2301 140.423C78.7176 140.012 79.304 139.692 79.9895 139.464C80.6902 139.235 81.4671 139.121 82.3201 139.121C83.5539 139.121 84.5898 139.357 85.4276 139.829C86.2806 140.286 86.9965 140.956 87.5754 141.84L85.3819 143.394C84.9706 142.815 84.5212 142.396 84.0338 142.137C83.5616 141.863 83.0056 141.726 82.3658 141.726C81.5432 141.726 80.9111 141.947 80.4693 142.388C80.0276 142.83 79.8067 143.462 79.8067 144.285C79.8067 144.666 79.8448 145.024 79.9209 145.359C79.9971 145.679 80.0961 145.998 80.218 146.318H84.8335V148.718H81.0862C81.1015 148.839 81.1091 148.961 81.1091 149.083C81.1243 149.205 81.1319 149.327 81.1319 149.449C81.1319 150.256 80.9415 150.926 80.5607 151.459C80.1951 151.977 79.8067 152.358 79.3954 152.602V152.785H87.2098V155.344H76.3793ZM100.621 155.344H89.5618V152.556L94.5657 148.169C95.4188 147.423 96.0433 146.753 96.4394 146.158C96.8354 145.549 97.0334 144.894 97.0334 144.193V143.896C97.0334 143.196 96.805 142.663 96.348 142.297C95.891 141.916 95.335 141.726 94.68 141.726C93.8574 141.726 93.2329 141.962 92.8064 142.434C92.3799 142.891 92.0752 143.447 91.8924 144.102L89.2876 143.097C89.4552 142.564 89.6913 142.061 89.9959 141.589C90.3006 141.101 90.6814 140.675 91.1384 140.309C91.6106 139.943 92.159 139.654 92.7835 139.441C93.4081 139.228 94.124 139.121 94.9313 139.121C95.7691 139.121 96.5155 139.243 97.1705 139.487C97.8255 139.715 98.3739 140.042 98.8157 140.469C99.2727 140.896 99.6154 141.398 99.8439 141.977C100.088 142.556 100.209 143.188 100.209 143.874C100.209 144.544 100.103 145.153 99.8896 145.701C99.6763 146.25 99.3869 146.775 99.0213 147.278C98.6557 147.765 98.2292 148.238 97.7418 148.695C97.2543 149.136 96.7364 149.586 96.188 150.043L92.8292 152.808H100.621V155.344ZM108.7 155.618C107.68 155.618 106.796 155.435 106.05 155.07C105.303 154.689 104.687 154.148 104.199 153.447C103.712 152.747 103.346 151.886 103.102 150.865C102.874 149.845 102.76 148.679 102.76 147.369C102.76 146.075 102.874 144.917 103.102 143.896C103.346 142.861 103.712 141.992 104.199 141.292C104.687 140.591 105.303 140.058 106.05 139.692C106.796 139.311 107.68 139.121 108.7 139.121C110.726 139.121 112.219 139.844 113.179 141.292C114.154 142.739 114.641 144.765 114.641 147.369C114.641 149.974 114.154 152 113.179 153.447C112.219 154.894 110.726 155.618 108.7 155.618ZM108.7 153.082C109.721 153.082 110.429 152.701 110.825 151.939C111.237 151.162 111.442 150.119 111.442 148.809V145.93C111.442 144.62 111.237 143.584 110.825 142.822C110.429 142.046 109.721 141.657 108.7 141.657C107.68 141.657 106.964 142.046 106.553 142.822C106.157 143.584 105.959 144.62 105.959 145.93V148.809C105.959 150.119 106.157 151.162 106.553 151.939C106.964 152.701 107.68 153.082 108.7 153.082ZM122.401 155.618C121.38 155.618 120.497 155.435 119.75 155.07C119.004 154.689 118.387 154.148 117.9 153.447C117.412 152.747 117.047 151.886 116.803 150.865C116.574 149.845 116.46 148.679 116.46 147.369C116.46 146.075 116.574 144.917 116.803 143.896C117.047 142.861 117.412 141.992 117.9 141.292C118.387 140.591 119.004 140.058 119.75 139.692C120.497 139.311 121.38 139.121 122.401 139.121C124.427 139.121 125.92 139.844 126.879 141.292C127.854 142.739 128.342 144.765 128.342 147.369C128.342 149.974 127.854 152 126.879 153.447C125.92 154.894 124.427 155.618 122.401 155.618ZM122.401 153.082C123.421 153.082 124.13 152.701 124.526 151.939C124.937 151.162 125.143 150.119 125.143 148.809V145.93C125.143 144.62 124.937 143.584 124.526 142.822C124.13 142.046 123.421 141.657 122.401 141.657C121.38 141.657 120.664 142.046 120.253 142.822C119.857 143.584 119.659 144.62 119.659 145.93V148.809C119.659 150.119 119.857 151.162 120.253 151.939C120.664 152.701 121.38 153.082 122.401 153.082Z" fill="#2E3333"/>
</g>
</g>
<defs>
<filter id="filter0_dd_63_24296" x="-0.00925875" y="0.772963" width="176.264" height="182.792" filterUnits="userSpaceOnUse" color-interpolation-filters="sRGB">
<feFlood flood-opacity="0" result="BackgroundImageFix"/>
<feColorMatrix in="SourceAlpha" type="matrix" values="0 0 0 0 0 0 0 0 0 0 0 0 0 0 0 0 0 0 127 0" result="hardAlpha"/>
<feMorphology radius="1.63208" operator="dilate" in="SourceAlpha" result="effect1_dropShadow_63_24296"/>
<feOffset/>
<feComposite in2="hardAlpha" operator="out"/>
<feColorMatrix type="matrix" values="0 0 0 0 0 0 0 0 0 0 0 0 0 0 0 0 0 0 0.04 0"/>
<feBlend mode="normal" in2="BackgroundImageFix" result="effect1_dropShadow_63_24296"/>
<feColorMatrix in="SourceAlpha" type="matrix" values="0 0 0 0 0 0 0 0 0 0 0 0 0 0 0 0 0 0 127 0" result="hardAlpha"/>
<feOffset dy="1.63208"/>
<feGaussianBlur stdDeviation="3.26415"/>
<feComposite in2="hardAlpha" operator="out"/>
<feColorMatrix type="matrix" values="0 0 0 0 0 0 0 0 0 0 0 0 0 0 0 0 0 0 0.08 0"/>
<feBlend mode="normal" in2="effect1_dropShadow_63_24296" result="effect2_dropShadow_63_24296"/>
<feBlend mode="normal" in="SourceGraphic" in2="effect2_dropShadow_63_24296" result="shape"/>
</filter>
<linearGradient id="paint0_linear_63_24296" x1="6.88672" y1="1.03711" x2="117.206" y2="160.321" gradientUnits="userSpaceOnUse">
<stop stop-color="#00DDCC"/>
<stop offset="1" stop-color="#009D91"/>
</linearGradient>
<clipPath id="clip0_63_24296">
<rect x="6.51904" y="5.66919" width="163.208" height="169.736" rx="4.89623" fill="white"/>
</clipPath>
</defs>
</svg>
