<svg width="177" height="184" viewBox="0 0 177 184" fill="none" xmlns="http://www.w3.org/2000/svg">
<g filter="url(#filter0_dd_63_24269)">
<g clip-path="url(#clip0_63_24269)">
<rect x="7.104" y="5.66919" width="163.208" height="169.736" rx="4.89623" fill="white"/>
<rect x="7.47168" y="1.03711" width="163.21" height="122.61" fill="url(#paint0_linear_63_24269)"/>
<path d="M21.7829 155.344V152.488C22.377 152.213 22.8264 151.825 23.131 151.322C23.4357 150.82 23.588 150.241 23.588 149.586C23.588 149.266 23.5575 148.976 23.4966 148.718H21.1203V146.318H22.6512C22.5293 145.938 22.4151 145.549 22.3085 145.153C22.2018 144.757 22.1485 144.323 22.1485 143.851C22.1485 143.15 22.278 142.51 22.5369 141.931C22.7959 141.337 23.1615 140.835 23.6337 140.423C24.1211 140.012 24.7076 139.692 25.3931 139.464C26.0938 139.235 26.8707 139.121 27.7237 139.121C28.9575 139.121 29.9934 139.357 30.8312 139.829C31.6842 140.286 32.4001 140.956 32.979 141.84L30.7855 143.394C30.3742 142.815 29.9248 142.396 29.4374 142.137C28.9651 141.863 28.4092 141.726 27.7694 141.726C26.9468 141.726 26.3147 141.947 25.8729 142.388C25.4312 142.83 25.2103 143.462 25.2103 144.285C25.2103 144.666 25.2484 145.024 25.3245 145.359C25.4007 145.679 25.4997 145.998 25.6216 146.318H30.2371V148.718H26.4898C26.5051 148.839 26.5127 148.961 26.5127 149.083C26.5279 149.205 26.5355 149.327 26.5355 149.449C26.5355 150.256 26.3451 150.926 25.9643 151.459C25.5987 151.977 25.2103 152.358 24.799 152.602V152.785H32.6134V155.344H21.7829ZM46.0243 155.344H34.9654V152.556L39.9693 148.169C40.8224 147.423 41.4469 146.753 41.843 146.158C42.239 145.549 42.437 144.894 42.437 144.193V143.896C42.437 143.196 42.2086 142.663 41.7516 142.297C41.2946 141.916 40.7386 141.726 40.0836 141.726C39.261 141.726 38.6365 141.962 38.21 142.434C37.7835 142.891 37.4788 143.447 37.296 144.102L34.6912 143.097C34.8588 142.564 35.0949 142.061 35.3995 141.589C35.7042 141.101 36.085 140.675 36.542 140.309C37.0142 139.943 37.5626 139.654 38.1871 139.441C38.8117 139.228 39.5276 139.121 40.3349 139.121C41.1727 139.121 41.9191 139.243 42.5741 139.487C43.2291 139.715 43.7775 140.042 44.2193 140.469C44.6763 140.896 45.019 141.398 45.2475 141.977C45.4912 142.556 45.6131 143.188 45.6131 143.874C45.6131 144.544 45.5064 145.153 45.2932 145.701C45.0799 146.25 44.7905 146.775 44.4249 147.278C44.0593 147.765 43.6328 148.238 43.1454 148.695C42.6579 149.136 42.14 149.586 41.5916 150.043L38.2328 152.808H46.0243V155.344ZM59.0165 142H51.8419L51.4763 147.347H51.6363C51.8039 147.011 51.9866 146.699 52.1847 146.41C52.3827 146.12 52.6112 145.877 52.8701 145.679C53.1291 145.481 53.4261 145.328 53.7613 145.222C54.1116 145.1 54.5305 145.039 55.018 145.039C55.7034 145.039 56.3432 145.153 56.9373 145.382C57.5313 145.61 58.0416 145.945 58.4682 146.387C58.9099 146.813 59.2526 147.339 59.4964 147.964C59.7553 148.588 59.8848 149.296 59.8848 150.088C59.8848 150.896 59.7553 151.635 59.4964 152.305C59.2374 152.975 58.8566 153.562 58.3539 154.064C57.8512 154.552 57.2343 154.932 56.5031 155.207C55.772 155.481 54.9342 155.618 53.9897 155.618C53.2586 155.618 52.6036 155.534 52.0247 155.367C51.4459 155.214 50.9356 155.001 50.4938 154.727C50.0521 154.453 49.6713 154.14 49.3514 153.79C49.0315 153.424 48.7497 153.044 48.506 152.648L50.6995 150.957C50.8823 151.261 51.0727 151.551 51.2707 151.825C51.4687 152.084 51.6972 152.312 51.9562 152.51C52.2304 152.708 52.5274 152.868 52.8473 152.99C53.1824 153.097 53.5708 153.15 54.0126 153.15C54.9113 153.15 55.5892 152.899 56.0462 152.396C56.5184 151.894 56.7545 151.208 56.7545 150.34V150.157C56.7545 149.334 56.5184 148.687 56.0462 148.215C55.5739 147.743 54.9189 147.507 54.0811 147.507C53.4261 147.507 52.893 147.636 52.4817 147.895C52.0704 148.139 51.7429 148.405 51.4992 148.695L49.0315 148.352L49.6256 139.395H59.0165V142ZM62.275 149.837V146.935H68.8099V149.837H62.275ZM81.9102 142H74.7356L74.37 147.347H74.53C74.6975 147.011 74.8803 146.699 75.0784 146.41C75.2764 146.12 75.5049 145.877 75.7638 145.679C76.0228 145.481 76.3198 145.328 76.6549 145.222C77.0053 145.1 77.4242 145.039 77.9116 145.039C78.5971 145.039 79.2369 145.153 79.831 145.382C80.425 145.61 80.9353 145.945 81.3618 146.387C81.8036 146.813 82.1463 147.339 82.3901 147.964C82.649 148.588 82.7785 149.296 82.7785 150.088C82.7785 150.896 82.649 151.635 82.3901 152.305C82.1311 152.975 81.7503 153.562 81.2476 154.064C80.7449 154.552 80.128 154.932 79.3968 155.207C78.6657 155.481 77.8279 155.618 76.8834 155.618C76.1523 155.618 75.4973 155.534 74.9184 155.367C74.3396 155.214 73.8293 155.001 73.3875 154.727C72.9458 154.453 72.565 154.14 72.2451 153.79C71.9252 153.424 71.6434 153.044 71.3997 152.648L73.5932 150.957C73.776 151.261 73.9664 151.551 74.1644 151.825C74.3624 152.084 74.5909 152.312 74.8499 152.51C75.1241 152.708 75.4211 152.868 75.741 152.99C76.0761 153.097 76.4645 153.15 76.9063 153.15C77.805 153.15 78.4829 152.899 78.9398 152.396C79.4121 151.894 79.6482 151.208 79.6482 150.34V150.157C79.6482 149.334 79.4121 148.687 78.9398 148.215C78.4676 147.743 77.8126 147.507 76.9748 147.507C76.3198 147.507 75.7867 147.636 75.3754 147.895C74.9641 148.139 74.6366 148.405 74.3929 148.695L71.9252 148.352L72.5193 139.395H81.9102V142ZM90.6982 155.618C89.6776 155.618 88.7941 155.435 88.0477 155.07C87.3013 154.689 86.6844 154.148 86.1969 153.447C85.7095 152.747 85.3439 151.886 85.1002 150.865C84.8717 149.845 84.7574 148.679 84.7574 147.369C84.7574 146.075 84.8717 144.917 85.1002 143.896C85.3439 142.861 85.7095 141.992 86.1969 141.292C86.6844 140.591 87.3013 140.058 88.0477 139.692C88.7941 139.311 89.6776 139.121 90.6982 139.121C92.7241 139.121 94.2169 139.844 95.1766 141.292C96.1515 142.739 96.6389 144.765 96.6389 147.369C96.6389 149.974 96.1515 152 95.1766 153.447C94.2169 154.894 92.7241 155.618 90.6982 155.618ZM90.6982 153.082C91.7188 153.082 92.4271 152.701 92.8231 151.939C93.2344 151.162 93.4401 150.119 93.4401 148.809V145.93C93.4401 144.62 93.2344 143.584 92.8231 142.822C92.4271 142.046 91.7188 141.657 90.6982 141.657C89.6776 141.657 88.9617 142.046 88.5504 142.822C88.1543 143.584 87.9563 144.62 87.9563 145.93V148.809C87.9563 150.119 88.1543 151.162 88.5504 151.939C88.9617 152.701 89.6776 153.082 90.6982 153.082Z" fill="#2E3333"/>
</g>
</g>
<defs>
<filter id="filter0_dd_63_24269" x="0.575702" y="0.772963" width="176.264" height="182.792" filterUnits="userSpaceOnUse" color-interpolation-filters="sRGB">
<feFlood flood-opacity="0" result="BackgroundImageFix"/>
<feColorMatrix in="SourceAlpha" type="matrix" values="0 0 0 0 0 0 0 0 0 0 0 0 0 0 0 0 0 0 127 0" result="hardAlpha"/>
<feMorphology radius="1.63208" operator="dilate" in="SourceAlpha" result="effect1_dropShadow_63_24269"/>
<feOffset/>
<feComposite in2="hardAlpha" operator="out"/>
<feColorMatrix type="matrix" values="0 0 0 0 0 0 0 0 0 0 0 0 0 0 0 0 0 0 0.04 0"/>
<feBlend mode="normal" in2="BackgroundImageFix" result="effect1_dropShadow_63_24269"/>
<feColorMatrix in="SourceAlpha" type="matrix" values="0 0 0 0 0 0 0 0 0 0 0 0 0 0 0 0 0 0 127 0" result="hardAlpha"/>
<feOffset dy="1.63208"/>
<feGaussianBlur stdDeviation="3.26415"/>
<feComposite in2="hardAlpha" operator="out"/>
<feColorMatrix type="matrix" values="0 0 0 0 0 0 0 0 0 0 0 0 0 0 0 0 0 0 0.08 0"/>
<feBlend mode="normal" in2="effect1_dropShadow_63_24269" result="effect2_dropShadow_63_24269"/>
<feBlend mode="normal" in="SourceGraphic" in2="effect2_dropShadow_63_24269" result="shape"/>
</filter>
<linearGradient id="paint0_linear_63_24269" x1="7.47168" y1="1.03711" x2="117.791" y2="160.321" gradientUnits="userSpaceOnUse">
<stop stop-color="#00DDCC"/>
<stop offset="1" stop-color="#009D91"/>
</linearGradient>
<clipPath id="clip0_63_24269">
<rect x="7.104" y="5.66919" width="163.208" height="169.736" rx="4.89623" fill="white"/>
</clipPath>
</defs>
</svg>
