<svg width="177" height="184" viewBox="0 0 177 184" fill="none" xmlns="http://www.w3.org/2000/svg">
<g filter="url(#filter0_dd_63_21679)">
<g clip-path="url(#clip0_63_21679)">
<rect x="6.63232" y="5.66919" width="163.208" height="169.736" rx="4.89623" fill="white"/>
<rect x="7" y="1.03711" width="163.21" height="122.61" fill="url(#paint0_linear_63_21679)"/>
<path d="M24.4187 139.395V149.197C24.4187 150.446 24.6548 151.383 25.127 152.008C25.6145 152.632 26.4294 152.945 27.5719 152.945C28.7143 152.945 29.5217 152.632 29.9939 152.008C30.4813 151.383 30.7251 150.446 30.7251 149.197V139.395H33.6954V148.809C33.6954 149.982 33.5812 150.995 33.3527 151.848C33.1394 152.701 32.7891 153.409 32.3016 153.973C31.8142 154.536 31.1744 154.955 30.3823 155.23C29.6055 155.488 28.661 155.618 27.549 155.618C26.4218 155.618 25.4698 155.488 24.6929 155.23C23.9313 154.955 23.3067 154.536 22.8193 153.973C22.3318 153.409 21.9815 152.701 21.7682 151.848C21.555 150.995 21.4483 149.982 21.4483 148.809V139.395H24.4187ZM37.1555 155.344V143.417H40.0801V145.404H40.1944C40.4381 144.765 40.8189 144.231 41.3368 143.805C41.87 143.363 42.6012 143.142 43.5303 143.142C44.7642 143.142 45.7086 143.546 46.3636 144.353C47.0186 145.161 47.3461 146.311 47.3461 147.804V155.344H44.4215V148.101C44.4215 147.248 44.2691 146.608 43.9645 146.181C43.6598 145.755 43.1571 145.542 42.4564 145.542C42.1518 145.542 41.8548 145.587 41.5653 145.679C41.2911 145.755 41.0398 145.877 40.8113 146.044C40.5981 146.197 40.4229 146.395 40.2858 146.638C40.1487 146.867 40.0801 147.141 40.0801 147.461V155.344H37.1555ZM57.9913 153.356H57.8771C57.6638 154.041 57.2601 154.59 56.6661 155.001C56.072 155.412 55.3789 155.618 54.5868 155.618C53.0788 155.618 51.9211 155.077 51.1137 153.996C50.3216 152.914 49.9256 151.368 49.9256 149.357C49.9256 147.362 50.3216 145.831 51.1137 144.765C51.9211 143.683 53.0788 143.142 54.5868 143.142C55.3789 143.142 56.072 143.348 56.6661 143.759C57.2601 144.155 57.6638 144.696 57.8771 145.382H57.9913V138.435H60.916V155.344H57.9913V153.356ZM55.5236 153.196C56.2243 153.196 56.8108 153.028 57.283 152.693C57.7552 152.358 57.9913 151.878 57.9913 151.254V147.461C57.9913 146.882 57.7552 146.417 57.283 146.067C56.8108 145.717 56.2243 145.542 55.5236 145.542C54.762 145.542 54.145 145.8 53.6728 146.318C53.2158 146.821 52.9874 147.499 52.9874 148.352V150.408C52.9874 151.261 53.2158 151.939 53.6728 152.442C54.145 152.945 54.762 153.196 55.5236 153.196ZM69.1099 155.618C68.2264 155.618 67.4343 155.473 66.7336 155.184C66.0481 154.879 65.4616 154.46 64.9742 153.927C64.502 153.379 64.1364 152.724 63.8774 151.962C63.6185 151.185 63.489 150.317 63.489 149.357C63.489 148.413 63.6109 147.56 63.8546 146.798C64.1135 146.037 64.4791 145.389 64.9513 144.856C65.4236 144.308 66.0024 143.889 66.6879 143.599C67.3733 143.295 68.1502 143.142 69.0185 143.142C69.9477 143.142 70.755 143.302 71.4405 143.622C72.1259 143.942 72.6896 144.376 73.1313 144.925C73.573 145.473 73.9006 146.113 74.1138 146.844C74.3423 147.56 74.4565 148.329 74.4565 149.152V150.111H66.5279V150.408C66.5279 151.277 66.7716 151.977 67.2591 152.51C67.7465 153.028 68.4701 153.287 69.4298 153.287C70.1609 153.287 70.755 153.135 71.212 152.83C71.6842 152.526 72.1031 152.137 72.4687 151.665L74.0453 153.424C73.5578 154.11 72.8876 154.651 72.0345 155.047C71.1967 155.428 70.2219 155.618 69.1099 155.618ZM69.0642 145.336C68.2873 145.336 67.6704 145.595 67.2134 146.113C66.7564 146.631 66.5279 147.301 66.5279 148.123V148.306H71.4176V148.101C71.4176 147.278 71.212 146.615 70.8007 146.113C70.4046 145.595 69.8258 145.336 69.0642 145.336ZM77.0297 155.344V143.417H79.9544V145.884H80.0687C80.1448 145.564 80.2591 145.26 80.4114 144.97C80.579 144.666 80.7922 144.399 81.0512 144.171C81.3101 143.942 81.6148 143.759 81.9651 143.622C82.3307 143.485 82.7496 143.417 83.2218 143.417H83.8616V146.181H82.9476C81.9575 146.181 81.2111 146.326 80.7084 146.615C80.2058 146.905 79.9544 147.377 79.9544 148.032V155.344H77.0297ZM91.3311 155.344V152.488C91.9252 152.213 92.3745 151.825 92.6792 151.322C92.9839 150.82 93.1362 150.241 93.1362 149.586C93.1362 149.266 93.1057 148.976 93.0448 148.718H90.6685V146.318H92.1994C92.0775 145.938 91.9633 145.549 91.8566 145.153C91.75 144.757 91.6967 144.323 91.6967 143.851C91.6967 143.15 91.8262 142.51 92.0851 141.931C92.3441 141.337 92.7097 140.835 93.1819 140.423C93.6693 140.012 94.2558 139.692 94.9413 139.464C95.642 139.235 96.4188 139.121 97.2719 139.121C98.5057 139.121 99.5415 139.357 100.379 139.829C101.232 140.286 101.948 140.956 102.527 141.84L100.334 143.394C99.9224 142.815 99.473 142.396 98.9855 142.137C98.5133 141.863 97.9573 141.726 97.3176 141.726C96.495 141.726 95.8628 141.947 95.4211 142.388C94.9793 142.83 94.7585 143.462 94.7585 144.285C94.7585 144.666 94.7965 145.024 94.8727 145.359C94.9489 145.679 95.0479 145.998 95.1697 146.318H99.7853V148.718H96.038C96.0532 148.839 96.0609 148.961 96.0609 149.083C96.0761 149.205 96.0837 149.327 96.0837 149.449C96.0837 150.256 95.8933 150.926 95.5125 151.459C95.1469 151.977 94.7585 152.358 94.3472 152.602V152.785H102.162V155.344H91.3311ZM115.573 155.344H104.514V152.556L109.518 148.169C110.371 147.423 110.995 146.753 111.391 146.158C111.787 145.549 111.985 144.894 111.985 144.193V143.896C111.985 143.196 111.757 142.663 111.3 142.297C110.843 141.916 110.287 141.726 109.632 141.726C108.809 141.726 108.185 141.962 107.758 142.434C107.332 142.891 107.027 143.447 106.844 144.102L104.239 143.097C104.407 142.564 104.643 142.061 104.948 141.589C105.252 141.101 105.633 140.675 106.09 140.309C106.562 139.943 107.111 139.654 107.735 139.441C108.36 139.228 109.076 139.121 109.883 139.121C110.721 139.121 111.467 139.243 112.122 139.487C112.777 139.715 113.326 140.042 113.767 140.469C114.224 140.896 114.567 141.398 114.796 141.977C115.039 142.556 115.161 143.188 115.161 143.874C115.161 144.544 115.055 145.153 114.841 145.701C114.628 146.25 114.339 146.775 113.973 147.278C113.608 147.765 113.181 148.238 112.694 148.695C112.206 149.136 111.688 149.586 111.14 150.043L107.781 152.808H115.573V155.344ZM128.565 142H121.39L121.025 147.347H121.184C121.352 147.011 121.535 146.699 121.733 146.41C121.931 146.12 122.159 145.877 122.418 145.679C122.677 145.481 122.974 145.328 123.309 145.222C123.66 145.1 124.079 145.039 124.566 145.039C125.252 145.039 125.891 145.153 126.485 145.382C127.08 145.61 127.59 145.945 128.016 146.387C128.458 146.813 128.801 147.339 129.045 147.964C129.304 148.588 129.433 149.296 129.433 150.088C129.433 150.896 129.304 151.635 129.045 152.305C128.786 152.975 128.405 153.562 127.902 154.064C127.399 154.552 126.782 154.932 126.051 155.207C125.32 155.481 124.482 155.618 123.538 155.618C122.807 155.618 122.152 155.534 121.573 155.367C120.994 155.214 120.484 155.001 120.042 154.727C119.6 154.453 119.219 154.14 118.9 153.79C118.58 153.424 118.298 153.044 118.054 152.648L120.248 150.957C120.43 151.261 120.621 151.551 120.819 151.825C121.017 152.084 121.245 152.312 121.504 152.51C121.779 152.708 122.076 152.868 122.395 152.99C122.731 153.097 123.119 153.15 123.561 153.15C124.46 153.15 125.137 152.899 125.594 152.396C126.067 151.894 126.303 151.208 126.303 150.34V150.157C126.303 149.334 126.067 148.687 125.594 148.215C125.122 147.743 124.467 147.507 123.629 147.507C122.974 147.507 122.441 147.636 122.03 147.895C121.619 148.139 121.291 148.405 121.047 148.695L118.58 148.352L119.174 139.395H128.565V142Z" fill="#2E3333"/>
</g>
</g>
<defs>
<filter id="filter0_dd_63_21679" x="0.104023" y="0.772963" width="176.264" height="182.792" filterUnits="userSpaceOnUse" color-interpolation-filters="sRGB">
<feFlood flood-opacity="0" result="BackgroundImageFix"/>
<feColorMatrix in="SourceAlpha" type="matrix" values="0 0 0 0 0 0 0 0 0 0 0 0 0 0 0 0 0 0 127 0" result="hardAlpha"/>
<feMorphology radius="1.63208" operator="dilate" in="SourceAlpha" result="effect1_dropShadow_63_21679"/>
<feOffset/>
<feComposite in2="hardAlpha" operator="out"/>
<feColorMatrix type="matrix" values="0 0 0 0 0 0 0 0 0 0 0 0 0 0 0 0 0 0 0.04 0"/>
<feBlend mode="normal" in2="BackgroundImageFix" result="effect1_dropShadow_63_21679"/>
<feColorMatrix in="SourceAlpha" type="matrix" values="0 0 0 0 0 0 0 0 0 0 0 0 0 0 0 0 0 0 127 0" result="hardAlpha"/>
<feOffset dy="1.63208"/>
<feGaussianBlur stdDeviation="3.26415"/>
<feComposite in2="hardAlpha" operator="out"/>
<feColorMatrix type="matrix" values="0 0 0 0 0 0 0 0 0 0 0 0 0 0 0 0 0 0 0.08 0"/>
<feBlend mode="normal" in2="effect1_dropShadow_63_21679" result="effect2_dropShadow_63_21679"/>
<feBlend mode="normal" in="SourceGraphic" in2="effect2_dropShadow_63_21679" result="shape"/>
</filter>
<linearGradient id="paint0_linear_63_21679" x1="7" y1="1.03711" x2="117.32" y2="160.321" gradientUnits="userSpaceOnUse">
<stop stop-color="#00DDCC"/>
<stop offset="1" stop-color="#009D91"/>
</linearGradient>
<clipPath id="clip0_63_21679">
<rect x="6.63232" y="5.66919" width="163.208" height="169.736" rx="4.89623" fill="white"/>
</clipPath>
</defs>
</svg>
